<svg xmlns="http://www.w3.org/2000/svg" version="1.1" xmlns:xlink="http://www.w3.org/1999/xlink" width="512" height="512" x="0" y="0" viewBox="0 0 100 100" style="enable-background:new 0 0 512 512" xml:space="preserve"><g><g fill="#1d1d1b"><path d="M67.22 55.625c-1.217 1.52-3.598 3.36-6.119 5.308-3.492 2.697-7.101 5.487-8.485 8.1-1.566 2.956-.072 5.898 1.422 7.816-9.254-1.912-26.436-9.674-26.66-9.775a174.658 174.658 0 0 1-8.544-3.748c1.995-.928 5.682-2.933 6.146-5.255.31-1.544.22-4.5-.29-7.383 4.702-.314 27.634-1.71 40.423.052a1 1 0 0 0 .273-1.98c-13.267-1.83-37.125-.321-41.12-.048-.329-1.283-.745-2.48-1.26-3.436a1 1 0 1 0-1.761.948c1.608 2.986 2.234 9.16 1.775 11.455-.269 1.342-3.753 3.342-6.023 4.27a.974.974 0 0 0-.387.304c-4.08-2.02-7.308-3.9-9.154-5.368a1 1 0 0 0-1.245 1.564c4.081 3.247 13.22 7.541 20.376 10.462.885.4 21.764 9.832 30.102 10.337l.062.002a1 1 0 0 0 .632-1.774c-.048-.04-4.845-4.022-3-7.508 1.181-2.23 4.772-5.005 7.94-7.452 2.62-2.024 5.093-3.934 6.458-5.641a1 1 0 0 0-1.562-1.25z" fill="#ffffff" opacity="1" data-original="#1d1d1b"></path><path d="M10.75 56.25a1.001 1.001 0 0 0 .317-1.948c-.407-.136-2.42-.412-4.142-.631 1.278-2.996 4.84-10.79 8.445-13.636 5.533-4.368 25.055-17.43 33.251-18.48-.47 1.845-.866 4.994 1.306 6.514 9.092 6.365 19.142 13.882 19.894 15.3a1 1 0 0 0 1.866-.72c-.822-2.19-14.69-12.07-20.614-16.218-1.503-1.052-.584-4.452-.144-5.56a1 1 0 0 0-.867-1.37c-8.859-.578-32.83 16.515-35.932 18.964-4.906 3.874-9.374 15.19-9.561 15.67a1 1 0 0 0 .81 1.357c2.209.272 4.71.612 5.054.706a.997.997 0 0 0 .317.052z" fill="#ffffff" opacity="1" data-original="#1d1d1b"></path><circle cx="12.253" cy="50.367" r="1.5" fill="#ffffff" opacity="1" data-original="#1d1d1b"></circle><path d="M96.969 41.002a1 1 0 0 0-.87-.747c-3.497-.356-11.857 2.294-17.958 4.224-2.523.8-5.132 1.625-5.641 1.646-1.142 0-2.722-1.086-3.875-1.878a36.392 36.392 0 0 0-.765-.518c-1.406-.916-2.775-1.962-4.097-2.974-1.944-1.487-3.954-3.026-6.19-4.242-3.677-2-7.79-3.384-11.356-4.524a207.141 207.141 0 0 0-10.59-3.082 1 1 0 1 0-.506 1.936 205.35 205.35 0 0 1 10.487 3.05c3.48 1.114 7.486 2.46 11.009 4.377 2.1 1.142 4.047 2.632 5.93 4.073 1.353 1.035 2.751 2.104 4.221 3.062.224.146.467.313.724.49 1.446.994 3.246 2.23 5.008 2.23.482 0 1.476-.26 3.188-.783.3.829.767 2.488.41 3.992-1.288-1-2.005-1.453-2.514-1.562a1.007 1.007 0 0 0-.209-.022c-.25 0-2.567.086-6.709 3.063-4.5 3.235-23.194 14.398-28.563 15.198a1 1 0 0 0 .294 1.978c6.143-.915 25.38-12.635 29.437-15.552 3.055-2.196 4.915-2.6 5.408-2.671.749.368 3.151 2.352 5.1 3.963 5.431 4.487 9.787 7.96 12.325 8.5a1 1 0 0 0 .415-1.957c-2.26-.48-7.58-4.876-11.465-8.084-.703-.581-1.3-1.071-1.85-1.52.906-2.218.277-4.68-.165-5.92l1.142-.361c4.076-1.291 9.669-3.06 13.604-3.809-8.902 6.338-8.69 7.509-8.582 8.1.019.102.052.2.1.29.176.33 4.297 8.08 5.57 9.863a1 1 0 1 0 1.628-1.162c-1.041-1.457-4.341-7.599-5.216-9.236.976-1.301 6.142-5.225 10.717-8.358a1 1 0 0 0 .404-1.073z" fill="#ffffff" opacity="1" data-original="#1d1d1b"></path></g></g></svg>